<svg width="300" height="406" viewBox="0 0 300 406" fill="none" xmlns="http://www.w3.org/2000/svg">
<path d="M0 100C0 44.7715 44.7715 0 100 0H150V150H0V100Z" fill="#FFCE31"/>
<path d="M150 150H300V200C300 255.228 255.228 300 200 300H150V150Z" fill="#2358E0"/>
<rect x="29" y="209" width="41" height="84" rx="20.5" fill="#F1662A"/>
<rect x="90" y="278" width="41" height="84" rx="20.5" fill="#2358E0"/>
<rect x="78" y="163" width="53" height="105" rx="26.5" fill="#FFCE31"/>
<rect x="29" y="301" width="53" height="105" rx="26.5" fill="#FF3E00"/>
<circle cx="72.5" cy="100.5" r="2.5" fill="#FFCE31"/>
<circle cx="72.5" cy="100.5" r="2.5" fill="#FFCE31"/>
<circle cx="72.5" cy="100.5" r="2.5" fill="#FFCE31"/>
<circle cx="72.5" cy="110.5" r="2.5" fill="#FFCE31"/>
<circle cx="72.5" cy="110.5" r="2.5" fill="#FFCE31"/>
<circle cx="72.5" cy="110.5" r="2.5" fill="#FFCE31"/>
<circle cx="72.5" cy="120.5" r="2.5" fill="#FFCE31"/>
<circle cx="72.5" cy="120.5" r="2.5" fill="#FFCE31"/>
<circle cx="72.5" cy="120.5" r="2.5" fill="#FFCE31"/>
<circle cx="72.5" cy="130.5" r="2.5" fill="#FFCE31"/>
<circle cx="72.5" cy="130.5" r="2.5" fill="#FFCE31"/>
<circle cx="72.5" cy="130.5" r="2.5" fill="#FFCE31"/>
<circle cx="72.5" cy="140.5" r="2.5" fill="#FFCE31"/>
<circle cx="72.5" cy="140.5" r="2.5" fill="#FFCE31"/>
<circle cx="72.5" cy="140.5" r="2.5" fill="#FFCE31"/>
<circle cx="72.5" cy="150.5" r="2.5" fill="#FFCE31"/>
<circle cx="72.5" cy="150.5" r="2.5" fill="#FFCE31"/>
<circle cx="72.5" cy="150.5" r="2.5" fill="#FFCE31"/>
<circle cx="72.5" cy="160.5" r="2.5" fill="#FFCE31"/>
<circle cx="72.5" cy="160.5" r="2.5" fill="#FFCE31"/>
<circle cx="72.5" cy="160.5" r="2.5" fill="#FFCE31"/>
<circle cx="72.5" cy="170.5" r="2.5" fill="#FFCE31"/>
<circle cx="72.5" cy="170.5" r="2.5" fill="#FFCE31"/>
<circle cx="72.5" cy="170.5" r="2.5" fill="#FFCE31"/>
<circle cx="72.5" cy="180.5" r="2.5" fill="#FFCE31"/>
<circle cx="72.5" cy="180.5" r="2.5" fill="#FFCE31"/>
<circle cx="72.5" cy="180.5" r="2.5" fill="#FFCE31"/>
<circle cx="72.5" cy="190.5" r="2.5" fill="#FFCE31"/>
<circle cx="72.5" cy="190.5" r="2.5" fill="#FFCE31"/>
<circle cx="72.5" cy="190.5" r="2.5" fill="#FFCE31"/>
<circle cx="72.5" cy="200.5" r="2.5" fill="#FFCE31"/>
<circle cx="72.5" cy="200.5" r="2.5" fill="#FFCE31"/>
<circle cx="72.5" cy="200.5" r="2.5" fill="#FFCE31"/>
<circle cx="80.5" cy="100.5" r="2.5" fill="#FFCE31"/>
<circle cx="80.5" cy="100.5" r="2.5" fill="#FFCE31"/>
<circle cx="80.5" cy="100.5" r="2.5" fill="#FFCE31"/>
<circle cx="80.5" cy="110.5" r="2.5" fill="#FFCE31"/>
<circle cx="80.5" cy="110.5" r="2.5" fill="#FFCE31"/>
<circle cx="80.5" cy="110.5" r="2.5" fill="#FFCE31"/>
<circle cx="80.5" cy="120.5" r="2.5" fill="#FFCE31"/>
<circle cx="80.5" cy="120.5" r="2.5" fill="#FFCE31"/>
<circle cx="80.5" cy="120.5" r="2.5" fill="#FFCE31"/>
<circle cx="80.5" cy="130.5" r="2.5" fill="#FFCE31"/>
<circle cx="80.5" cy="130.5" r="2.5" fill="#FFCE31"/>
<circle cx="80.5" cy="130.5" r="2.5" fill="#FFCE31"/>
<circle cx="80.5" cy="140.5" r="2.5" fill="#FFCE31"/>
<circle cx="80.5" cy="140.5" r="2.5" fill="#FFCE31"/>
<circle cx="80.5" cy="140.5" r="2.5" fill="#FFCE31"/>
<circle cx="80.5" cy="150.5" r="2.5" fill="#FFCE31"/>
<circle cx="80.5" cy="150.5" r="2.5" fill="#FFCE31"/>
<circle cx="80.5" cy="150.5" r="2.5" fill="#FFCE31"/>
<circle cx="80.5" cy="160.5" r="2.5" fill="#FFCE31"/>
<circle cx="80.5" cy="160.5" r="2.5" fill="#FFCE31"/>
<circle cx="80.5" cy="160.5" r="2.5" fill="#FFCE31"/>
<circle cx="80.5" cy="170.5" r="2.5" fill="#FFCE31"/>
<circle cx="80.5" cy="170.5" r="2.5" fill="#FFCE31"/>
<circle cx="80.5" cy="170.5" r="2.5" fill="#FFCE31"/>
<circle cx="80.5" cy="180.5" r="2.5" fill="#FFCE31"/>
<circle cx="80.5" cy="180.5" r="2.5" fill="#FFCE31"/>
<circle cx="80.5" cy="180.5" r="2.5" fill="#FFCE31"/>
<circle cx="80.5" cy="190.5" r="2.5" fill="#FFCE31"/>
<circle cx="80.5" cy="190.5" r="2.5" fill="#FFCE31"/>
<circle cx="80.5" cy="190.5" r="2.5" fill="#FFCE31"/>
<circle cx="80.5" cy="200.5" r="2.5" fill="#FFCE31"/>
<circle cx="80.5" cy="200.5" r="2.5" fill="#FFCE31"/>
<circle cx="80.5" cy="200.5" r="2.5" fill="#FFCE31"/>
<circle cx="88.5" cy="100.5" r="2.5" fill="#FFCE31"/>
<circle cx="88.5" cy="100.5" r="2.5" fill="#FFCE31"/>
<circle cx="88.5" cy="100.5" r="2.5" fill="#FFCE31"/>
<circle cx="88.5" cy="110.5" r="2.5" fill="#FFCE31"/>
<circle cx="88.5" cy="110.5" r="2.5" fill="#FFCE31"/>
<circle cx="88.5" cy="110.5" r="2.5" fill="#FFCE31"/>
<circle cx="88.5" cy="120.5" r="2.5" fill="#FFCE31"/>
<circle cx="88.5" cy="120.5" r="2.5" fill="#FFCE31"/>
<circle cx="88.5" cy="120.5" r="2.5" fill="#FFCE31"/>
<circle cx="88.5" cy="130.5" r="2.5" fill="#FFCE31"/>
<circle cx="88.5" cy="130.5" r="2.5" fill="#FFCE31"/>
<circle cx="88.5" cy="130.5" r="2.5" fill="#FFCE31"/>
<circle cx="88.5" cy="140.5" r="2.5" fill="#FFCE31"/>
<circle cx="88.5" cy="140.5" r="2.5" fill="#FFCE31"/>
<circle cx="88.5" cy="140.5" r="2.5" fill="#FFCE31"/>
<circle cx="88.5" cy="150.5" r="2.5" fill="#FFCE31"/>
<circle cx="88.5" cy="150.5" r="2.5" fill="#FFCE31"/>
<circle cx="88.5" cy="150.5" r="2.5" fill="#FFCE31"/>
<circle cx="88.5" cy="160.5" r="2.5" fill="#FFCE31"/>
<circle cx="88.5" cy="160.5" r="2.5" fill="#FFCE31"/>
<circle cx="88.5" cy="160.5" r="2.5" fill="#FFCE31"/>
<circle cx="88.5" cy="170.5" r="2.5" fill="#FFCE31"/>
<circle cx="88.5" cy="170.5" r="2.5" fill="#FFCE31"/>
<circle cx="88.5" cy="170.5" r="2.5" fill="#FFCE31"/>
<circle cx="88.5" cy="180.5" r="2.5" fill="#FFCE31"/>
<circle cx="88.5" cy="180.5" r="2.5" fill="#FFCE31"/>
<circle cx="88.5" cy="180.5" r="2.5" fill="#FFCE31"/>
<circle cx="88.5" cy="190.5" r="2.5" fill="#FFCE31"/>
<circle cx="88.5" cy="190.5" r="2.5" fill="#FFCE31"/>
<circle cx="88.5" cy="190.5" r="2.5" fill="#FFCE31"/>
<circle cx="88.5" cy="200.5" r="2.5" fill="#FFCE31"/>
<circle cx="88.5" cy="200.5" r="2.5" fill="#FFCE31"/>
<circle cx="88.5" cy="200.5" r="2.5" fill="#FFCE31"/>
<circle cx="96.5" cy="100.5" r="2.5" fill="#FFCE31"/>
<circle cx="96.5" cy="100.5" r="2.5" fill="#FFCE31"/>
<circle cx="96.5" cy="100.5" r="2.5" fill="#FFCE31"/>
<circle cx="96.5" cy="110.5" r="2.5" fill="#FFCE31"/>
<circle cx="96.5" cy="110.5" r="2.5" fill="#FFCE31"/>
<circle cx="96.5" cy="110.5" r="2.5" fill="#FFCE31"/>
<circle cx="96.5" cy="120.5" r="2.5" fill="#FFCE31"/>
<circle cx="96.5" cy="120.5" r="2.5" fill="#FFCE31"/>
<circle cx="96.5" cy="120.5" r="2.5" fill="#FFCE31"/>
<circle cx="96.5" cy="130.5" r="2.5" fill="#FFCE31"/>
<circle cx="96.5" cy="130.5" r="2.5" fill="#FFCE31"/>
<circle cx="96.5" cy="130.5" r="2.5" fill="#FFCE31"/>
<circle cx="96.5" cy="140.5" r="2.5" fill="#FFCE31"/>
<circle cx="96.5" cy="140.5" r="2.5" fill="#FFCE31"/>
<circle cx="96.5" cy="140.5" r="2.5" fill="#FFCE31"/>
<circle cx="96.5" cy="150.5" r="2.5" fill="#FFCE31"/>
<circle cx="96.5" cy="150.5" r="2.5" fill="#FFCE31"/>
<circle cx="96.5" cy="150.5" r="2.5" fill="#FFCE31"/>
<circle cx="96.5" cy="160.5" r="2.5" fill="#FFCE31"/>
<circle cx="96.5" cy="160.5" r="2.5" fill="#FFCE31"/>
<circle cx="96.5" cy="160.5" r="2.5" fill="#FFCE31"/>
<circle cx="96.5" cy="170.5" r="2.5" fill="#FFCE31"/>
<circle cx="96.5" cy="170.5" r="2.5" fill="#FFCE31"/>
<circle cx="96.5" cy="170.5" r="2.5" fill="#FFCE31"/>
<circle cx="96.5" cy="180.5" r="2.5" fill="#FFCE31"/>
<circle cx="96.5" cy="180.5" r="2.5" fill="#FFCE31"/>
<circle cx="96.5" cy="180.5" r="2.5" fill="#FFCE31"/>
<circle cx="96.5" cy="190.5" r="2.5" fill="#FFCE31"/>
<circle cx="96.5" cy="190.5" r="2.5" fill="#FFCE31"/>
<circle cx="96.5" cy="190.5" r="2.5" fill="#FFCE31"/>
<circle cx="96.5" cy="200.5" r="2.5" fill="#FFCE31"/>
<circle cx="96.5" cy="200.5" r="2.5" fill="#FFCE31"/>
<circle cx="96.5" cy="200.5" r="2.5" fill="#FFCE31"/>
<circle cx="104.5" cy="100.5" r="2.5" fill="#FFCE31"/>
<circle cx="104.5" cy="100.5" r="2.5" fill="#FFCE31"/>
<circle cx="104.5" cy="100.5" r="2.5" fill="#FFCE31"/>
<circle cx="104.5" cy="110.5" r="2.5" fill="#FFCE31"/>
<circle cx="104.5" cy="110.5" r="2.5" fill="#FFCE31"/>
<circle cx="104.5" cy="110.5" r="2.5" fill="#FFCE31"/>
<circle cx="104.5" cy="120.5" r="2.5" fill="#FFCE31"/>
<circle cx="104.5" cy="120.5" r="2.5" fill="#FFCE31"/>
<circle cx="104.5" cy="120.5" r="2.5" fill="#FFCE31"/>
<circle cx="104.5" cy="130.5" r="2.5" fill="#FFCE31"/>
<circle cx="104.5" cy="130.5" r="2.5" fill="#FFCE31"/>
<circle cx="104.5" cy="130.5" r="2.5" fill="#FFCE31"/>
<circle cx="104.5" cy="140.5" r="2.5" fill="#FFCE31"/>
<circle cx="104.5" cy="140.5" r="2.5" fill="#FFCE31"/>
<circle cx="104.5" cy="140.5" r="2.5" fill="#FFCE31"/>
<circle cx="104.5" cy="150.5" r="2.5" fill="#FFCE31"/>
<circle cx="104.5" cy="150.5" r="2.5" fill="#FFCE31"/>
<circle cx="104.5" cy="150.5" r="2.5" fill="#FFCE31"/>
<circle cx="104.5" cy="160.5" r="2.5" fill="#FFCE31"/>
<circle cx="104.5" cy="160.5" r="2.5" fill="#FFCE31"/>
<circle cx="104.5" cy="160.5" r="2.5" fill="#FFCE31"/>
<circle cx="104.5" cy="170.5" r="2.5" fill="#FFCE31"/>
<circle cx="104.5" cy="170.5" r="2.5" fill="#FFCE31"/>
<circle cx="104.5" cy="170.5" r="2.5" fill="#FFCE31"/>
<circle cx="104.5" cy="180.5" r="2.5" fill="#FFCE31"/>
<circle cx="104.5" cy="180.5" r="2.5" fill="#FFCE31"/>
<circle cx="104.5" cy="180.5" r="2.5" fill="#FFCE31"/>
<circle cx="104.5" cy="190.5" r="2.5" fill="#FFCE31"/>
<circle cx="104.5" cy="190.5" r="2.5" fill="#FFCE31"/>
<circle cx="104.5" cy="190.5" r="2.5" fill="#FFCE31"/>
<circle cx="104.5" cy="200.5" r="2.5" fill="#FFCE31"/>
<circle cx="104.5" cy="200.5" r="2.5" fill="#FFCE31"/>
<circle cx="104.5" cy="200.5" r="2.5" fill="#FFCE31"/>
<circle cx="112.5" cy="100.5" r="2.5" fill="#FFCE31"/>
<circle cx="112.5" cy="100.5" r="2.5" fill="#FFCE31"/>
<circle cx="112.5" cy="100.5" r="2.5" fill="#FFCE31"/>
<circle cx="112.5" cy="110.5" r="2.5" fill="#FFCE31"/>
<circle cx="112.5" cy="110.5" r="2.5" fill="#FFCE31"/>
<circle cx="112.5" cy="110.5" r="2.5" fill="#FFCE31"/>
<circle cx="112.5" cy="120.5" r="2.5" fill="#FFCE31"/>
<circle cx="112.5" cy="120.5" r="2.5" fill="#FFCE31"/>
<circle cx="112.5" cy="120.5" r="2.5" fill="#FFCE31"/>
<circle cx="112.5" cy="130.5" r="2.5" fill="#FFCE31"/>
<circle cx="112.5" cy="130.5" r="2.5" fill="#FFCE31"/>
<circle cx="112.5" cy="130.5" r="2.5" fill="#FFCE31"/>
<circle cx="112.5" cy="140.5" r="2.5" fill="#FFCE31"/>
<circle cx="112.5" cy="140.5" r="2.5" fill="#FFCE31"/>
<circle cx="112.5" cy="140.5" r="2.5" fill="#FFCE31"/>
<circle cx="112.5" cy="150.5" r="2.5" fill="#FFCE31"/>
<circle cx="112.5" cy="150.5" r="2.5" fill="#FFCE31"/>
<circle cx="112.5" cy="150.5" r="2.5" fill="#FFCE31"/>
<circle cx="112.5" cy="160.5" r="2.5" fill="#FFCE31"/>
<circle cx="112.5" cy="160.5" r="2.5" fill="#FFCE31"/>
<circle cx="112.5" cy="160.5" r="2.5" fill="#FFCE31"/>
<circle cx="112.5" cy="170.5" r="2.5" fill="#FFCE31"/>
<circle cx="112.5" cy="170.5" r="2.5" fill="#FFCE31"/>
<circle cx="112.5" cy="170.5" r="2.5" fill="#FFCE31"/>
<circle cx="112.5" cy="180.5" r="2.5" fill="#FFCE31"/>
<circle cx="112.5" cy="180.5" r="2.5" fill="#FFCE31"/>
<circle cx="112.5" cy="180.5" r="2.5" fill="#FFCE31"/>
<circle cx="112.5" cy="190.5" r="2.5" fill="#FFCE31"/>
<circle cx="112.5" cy="190.5" r="2.5" fill="#FFCE31"/>
<circle cx="112.5" cy="190.5" r="2.5" fill="#FFCE31"/>
<circle cx="112.5" cy="200.5" r="2.5" fill="#FFCE31"/>
<circle cx="112.5" cy="200.5" r="2.5" fill="#FFCE31"/>
<circle cx="112.5" cy="200.5" r="2.5" fill="#FFCE31"/>
<circle cx="120.5" cy="100.5" r="2.5" fill="#FFCE31"/>
<circle cx="120.5" cy="100.5" r="2.5" fill="#FFCE31"/>
<circle cx="120.5" cy="100.5" r="2.5" fill="#FFCE31"/>
<circle cx="120.5" cy="110.5" r="2.5" fill="#FFCE31"/>
<circle cx="120.5" cy="110.5" r="2.5" fill="#FFCE31"/>
<circle cx="120.5" cy="110.5" r="2.5" fill="#FFCE31"/>
<circle cx="120.5" cy="120.5" r="2.5" fill="#FFCE31"/>
<circle cx="120.5" cy="120.5" r="2.5" fill="#FFCE31"/>
<circle cx="120.5" cy="120.5" r="2.5" fill="#FFCE31"/>
<circle cx="120.5" cy="130.5" r="2.5" fill="#FFCE31"/>
<circle cx="120.5" cy="130.5" r="2.5" fill="#FFCE31"/>
<circle cx="120.5" cy="130.5" r="2.5" fill="#FFCE31"/>
<circle cx="120.5" cy="140.5" r="2.5" fill="#FFCE31"/>
<circle cx="120.5" cy="140.5" r="2.5" fill="#FFCE31"/>
<circle cx="120.5" cy="140.5" r="2.5" fill="#FFCE31"/>
<circle cx="120.5" cy="150.5" r="2.5" fill="#FFCE31"/>
<circle cx="120.5" cy="150.5" r="2.5" fill="#FFCE31"/>
<circle cx="120.5" cy="150.5" r="2.5" fill="#FFCE31"/>
<circle cx="120.5" cy="160.5" r="2.5" fill="#FFCE31"/>
<circle cx="120.5" cy="160.5" r="2.5" fill="#FFCE31"/>
<circle cx="120.5" cy="160.5" r="2.5" fill="#FFCE31"/>
<circle cx="120.5" cy="170.5" r="2.5" fill="#FFCE31"/>
<circle cx="120.5" cy="170.5" r="2.5" fill="#FFCE31"/>
<circle cx="120.5" cy="170.5" r="2.5" fill="#FFCE31"/>
<circle cx="120.5" cy="180.5" r="2.5" fill="#FFCE31"/>
<circle cx="120.5" cy="180.5" r="2.5" fill="#FFCE31"/>
<circle cx="120.5" cy="180.5" r="2.5" fill="#FFCE31"/>
<circle cx="120.5" cy="190.5" r="2.5" fill="#FFCE31"/>
<circle cx="120.5" cy="190.5" r="2.5" fill="#FFCE31"/>
<circle cx="120.5" cy="190.5" r="2.5" fill="#FFCE31"/>
<circle cx="120.5" cy="200.5" r="2.5" fill="#FFCE31"/>
<circle cx="120.5" cy="200.5" r="2.5" fill="#FFCE31"/>
<circle cx="120.5" cy="200.5" r="2.5" fill="#FFCE31"/>
<circle cx="128.5" cy="100.5" r="2.5" fill="#FFCE31"/>
<circle cx="128.5" cy="100.5" r="2.5" fill="#FFCE31"/>
<circle cx="128.5" cy="100.5" r="2.5" fill="#FFCE31"/>
<circle cx="128.5" cy="110.5" r="2.5" fill="#FFCE31"/>
<circle cx="128.5" cy="110.5" r="2.5" fill="#FFCE31"/>
<circle cx="128.5" cy="110.5" r="2.5" fill="#FFCE31"/>
<circle cx="128.5" cy="120.5" r="2.5" fill="#FFCE31"/>
<circle cx="128.5" cy="120.5" r="2.5" fill="#FFCE31"/>
<circle cx="128.5" cy="120.5" r="2.5" fill="#FFCE31"/>
<circle cx="128.5" cy="130.5" r="2.5" fill="#FFCE31"/>
<circle cx="128.5" cy="130.5" r="2.5" fill="#FFCE31"/>
<circle cx="128.5" cy="130.5" r="2.5" fill="#FFCE31"/>
<circle cx="128.5" cy="140.5" r="2.5" fill="#FFCE31"/>
<circle cx="128.5" cy="140.5" r="2.5" fill="#FFCE31"/>
<circle cx="128.5" cy="140.5" r="2.5" fill="#FFCE31"/>
<circle cx="128.5" cy="150.5" r="2.5" fill="#FFCE31"/>
<circle cx="128.5" cy="150.5" r="2.5" fill="#FFCE31"/>
<circle cx="128.5" cy="150.5" r="2.5" fill="#FFCE31"/>
<circle cx="128.5" cy="160.5" r="2.5" fill="#FFCE31"/>
<circle cx="128.5" cy="160.5" r="2.5" fill="#FFCE31"/>
<circle cx="128.5" cy="160.5" r="2.5" fill="#FFCE31"/>
<circle cx="128.5" cy="170.5" r="2.5" fill="#FFCE31"/>
<circle cx="128.5" cy="170.5" r="2.5" fill="#FFCE31"/>
<circle cx="128.5" cy="170.5" r="2.5" fill="#FFCE31"/>
<circle cx="128.5" cy="180.5" r="2.5" fill="#FFCE31"/>
<circle cx="128.5" cy="180.5" r="2.5" fill="#FFCE31"/>
<circle cx="128.5" cy="180.5" r="2.5" fill="#FFCE31"/>
<circle cx="128.5" cy="190.5" r="2.5" fill="#FFCE31"/>
<circle cx="128.5" cy="190.5" r="2.5" fill="#FFCE31"/>
<circle cx="128.5" cy="190.5" r="2.5" fill="#FFCE31"/>
<circle cx="128.5" cy="200.5" r="2.5" fill="#FFCE31"/>
<circle cx="128.5" cy="200.5" r="2.5" fill="#FFCE31"/>
<circle cx="128.5" cy="200.5" r="2.5" fill="#FFCE31"/>
<circle cx="136.5" cy="100.5" r="2.5" fill="#FFCE31"/>
<circle cx="136.5" cy="100.5" r="2.5" fill="#FFCE31"/>
<circle cx="136.5" cy="100.5" r="2.5" fill="#FFCE31"/>
<circle cx="136.5" cy="110.5" r="2.5" fill="#FFCE31"/>
<circle cx="136.5" cy="110.5" r="2.5" fill="#FFCE31"/>
<circle cx="136.5" cy="110.5" r="2.5" fill="#FFCE31"/>
<circle cx="136.5" cy="120.5" r="2.5" fill="#FFCE31"/>
<circle cx="136.5" cy="120.5" r="2.5" fill="#FFCE31"/>
<circle cx="136.5" cy="120.5" r="2.5" fill="#FFCE31"/>
<circle cx="136.5" cy="130.5" r="2.5" fill="#FFCE31"/>
<circle cx="136.5" cy="130.5" r="2.5" fill="#FFCE31"/>
<circle cx="136.5" cy="130.5" r="2.5" fill="#FFCE31"/>
<circle cx="136.5" cy="140.5" r="2.5" fill="#FFCE31"/>
<circle cx="136.5" cy="140.5" r="2.5" fill="#FFCE31"/>
<circle cx="136.5" cy="140.5" r="2.5" fill="#FFCE31"/>
<circle cx="136.5" cy="150.5" r="2.5" fill="#FFCE31"/>
<circle cx="136.5" cy="150.5" r="2.5" fill="#FFCE31"/>
<circle cx="136.5" cy="150.5" r="2.5" fill="#FFCE31"/>
<circle cx="136.5" cy="160.5" r="2.5" fill="#FFCE31"/>
<circle cx="136.5" cy="160.5" r="2.5" fill="#FFCE31"/>
<circle cx="136.5" cy="160.5" r="2.5" fill="#FFCE31"/>
<circle cx="136.5" cy="170.5" r="2.5" fill="#FFCE31"/>
<circle cx="136.5" cy="170.5" r="2.5" fill="#FFCE31"/>
<circle cx="136.5" cy="170.5" r="2.5" fill="#FFCE31"/>
<circle cx="136.5" cy="180.5" r="2.5" fill="#FFCE31"/>
<circle cx="136.5" cy="180.5" r="2.5" fill="#FFCE31"/>
<circle cx="136.5" cy="180.5" r="2.5" fill="#FFCE31"/>
<circle cx="136.5" cy="190.5" r="2.5" fill="#FFCE31"/>
<circle cx="136.5" cy="190.5" r="2.5" fill="#FFCE31"/>
<circle cx="136.5" cy="190.5" r="2.5" fill="#FFCE31"/>
<circle cx="136.5" cy="200.5" r="2.5" fill="#FFCE31"/>
<circle cx="136.5" cy="200.5" r="2.5" fill="#FFCE31"/>
<circle cx="136.5" cy="200.5" r="2.5" fill="#FFCE31"/>
<circle cx="144.5" cy="100.5" r="2.5" fill="#FFCE31"/>
<circle cx="144.5" cy="100.5" r="2.5" fill="#FFCE31"/>
<circle cx="144.5" cy="100.5" r="2.5" fill="#FFCE31"/>
<circle cx="144.5" cy="110.5" r="2.5" fill="#FFCE31"/>
<circle cx="144.5" cy="110.5" r="2.5" fill="#FFCE31"/>
<circle cx="144.5" cy="110.5" r="2.5" fill="#FFCE31"/>
<circle cx="144.5" cy="120.5" r="2.5" fill="#FFCE31"/>
<circle cx="144.5" cy="120.5" r="2.5" fill="#FFCE31"/>
<circle cx="144.5" cy="120.5" r="2.5" fill="#FFCE31"/>
<circle cx="144.5" cy="130.5" r="2.5" fill="#FFCE31"/>
<circle cx="144.5" cy="130.5" r="2.5" fill="#FFCE31"/>
<circle cx="144.5" cy="130.5" r="2.5" fill="#FFCE31"/>
<circle cx="144.5" cy="140.5" r="2.5" fill="#FFCE31"/>
<circle cx="144.5" cy="140.5" r="2.5" fill="#FFCE31"/>
<circle cx="144.5" cy="140.5" r="2.5" fill="#FFCE31"/>
<circle cx="144.5" cy="150.5" r="2.5" fill="#FFCE31"/>
<circle cx="144.5" cy="150.5" r="2.5" fill="#FFCE31"/>
<circle cx="144.5" cy="150.5" r="2.5" fill="#FFCE31"/>
<circle cx="144.5" cy="160.5" r="2.5" fill="#FFCE31"/>
<circle cx="144.5" cy="160.5" r="2.5" fill="#FFCE31"/>
<circle cx="144.5" cy="160.5" r="2.5" fill="#FFCE31"/>
<circle cx="144.5" cy="170.5" r="2.5" fill="#FFCE31"/>
<circle cx="144.5" cy="170.5" r="2.5" fill="#FFCE31"/>
<circle cx="144.5" cy="170.5" r="2.5" fill="#FFCE31"/>
<circle cx="144.5" cy="180.5" r="2.5" fill="#FFCE31"/>
<circle cx="144.5" cy="180.5" r="2.5" fill="#FFCE31"/>
<circle cx="144.5" cy="180.5" r="2.5" fill="#FFCE31"/>
<circle cx="144.5" cy="190.5" r="2.5" fill="#FFCE31"/>
<circle cx="144.5" cy="190.5" r="2.5" fill="#FFCE31"/>
<circle cx="144.5" cy="190.5" r="2.5" fill="#FFCE31"/>
<circle cx="144.5" cy="200.5" r="2.5" fill="#FFCE31"/>
<circle cx="144.5" cy="200.5" r="2.5" fill="#FFCE31"/>
<circle cx="144.5" cy="200.5" r="2.5" fill="#FFCE31"/>
<circle cx="152.5" cy="100.5" r="2.5" fill="#FFCE31"/>
<circle cx="152.5" cy="100.5" r="2.5" fill="#FFCE31"/>
<circle cx="152.5" cy="100.5" r="2.5" fill="#FFCE31"/>
<circle cx="152.5" cy="110.5" r="2.5" fill="#FFCE31"/>
<circle cx="152.5" cy="110.5" r="2.5" fill="#FFCE31"/>
<circle cx="152.5" cy="110.5" r="2.5" fill="#FFCE31"/>
<circle cx="152.5" cy="120.5" r="2.5" fill="#FFCE31"/>
<circle cx="152.5" cy="120.5" r="2.5" fill="#FFCE31"/>
<circle cx="152.5" cy="120.5" r="2.5" fill="#FFCE31"/>
<circle cx="152.5" cy="130.5" r="2.5" fill="#FFCE31"/>
<circle cx="152.5" cy="130.5" r="2.5" fill="#FFCE31"/>
<circle cx="152.5" cy="130.5" r="2.5" fill="#FFCE31"/>
<circle cx="152.5" cy="140.5" r="2.5" fill="#FFCE31"/>
<circle cx="152.5" cy="140.5" r="2.5" fill="#FFCE31"/>
<circle cx="152.5" cy="140.5" r="2.5" fill="#FFCE31"/>
<circle cx="152.5" cy="150.5" r="2.5" fill="#FFCE31"/>
<circle cx="152.5" cy="150.5" r="2.5" fill="#FFCE31"/>
<circle cx="152.5" cy="150.5" r="2.5" fill="#FFCE31"/>
<circle cx="152.5" cy="160.5" r="2.5" fill="#FFCE31"/>
<circle cx="152.5" cy="160.5" r="2.5" fill="#FFCE31"/>
<circle cx="152.5" cy="160.5" r="2.5" fill="#FFCE31"/>
<circle cx="152.5" cy="170.5" r="2.5" fill="#FFCE31"/>
<circle cx="152.5" cy="170.5" r="2.5" fill="#FFCE31"/>
<circle cx="152.5" cy="170.5" r="2.5" fill="#FFCE31"/>
<circle cx="152.5" cy="180.5" r="2.5" fill="#FFCE31"/>
<circle cx="152.5" cy="180.5" r="2.5" fill="#FFCE31"/>
<circle cx="152.5" cy="180.5" r="2.5" fill="#FFCE31"/>
<circle cx="152.5" cy="190.5" r="2.5" fill="#FFCE31"/>
<circle cx="152.5" cy="190.5" r="2.5" fill="#FFCE31"/>
<circle cx="152.5" cy="190.5" r="2.5" fill="#FFCE31"/>
<circle cx="152.5" cy="200.5" r="2.5" fill="#FFCE31"/>
<circle cx="152.5" cy="200.5" r="2.5" fill="#FFCE31"/>
<circle cx="152.5" cy="200.5" r="2.5" fill="#FFCE31"/>
<circle cx="160.5" cy="100.5" r="2.5" fill="#FFCE31"/>
<circle cx="160.5" cy="100.5" r="2.5" fill="#FFCE31"/>
<circle cx="160.5" cy="100.5" r="2.5" fill="#FFCE31"/>
<circle cx="160.5" cy="110.5" r="2.5" fill="#FFCE31"/>
<circle cx="160.5" cy="110.5" r="2.5" fill="#FFCE31"/>
<circle cx="160.5" cy="110.5" r="2.5" fill="#FFCE31"/>
<circle cx="160.5" cy="120.5" r="2.5" fill="#FFCE31"/>
<circle cx="160.5" cy="120.5" r="2.5" fill="#FFCE31"/>
<circle cx="160.5" cy="120.5" r="2.5" fill="#FFCE31"/>
<circle cx="160.5" cy="130.5" r="2.5" fill="#FFCE31"/>
<circle cx="160.5" cy="130.5" r="2.5" fill="#FFCE31"/>
<circle cx="160.5" cy="130.5" r="2.5" fill="#FFCE31"/>
<circle cx="160.5" cy="140.5" r="2.5" fill="#FFCE31"/>
<circle cx="160.5" cy="140.5" r="2.5" fill="#FFCE31"/>
<circle cx="160.5" cy="140.5" r="2.5" fill="#FFCE31"/>
<circle cx="160.5" cy="150.5" r="2.5" fill="#FFCE31"/>
<circle cx="160.5" cy="150.5" r="2.5" fill="#FFCE31"/>
<circle cx="160.5" cy="150.5" r="2.5" fill="#FFCE31"/>
<circle cx="160.5" cy="160.5" r="2.5" fill="#FFCE31"/>
<circle cx="160.5" cy="160.5" r="2.5" fill="#FFCE31"/>
<circle cx="160.5" cy="160.5" r="2.5" fill="#FFCE31"/>
<circle cx="160.5" cy="170.5" r="2.5" fill="#FFCE31"/>
<circle cx="160.5" cy="170.5" r="2.5" fill="#FFCE31"/>
<circle cx="160.5" cy="170.5" r="2.5" fill="#FFCE31"/>
<circle cx="160.5" cy="180.5" r="2.5" fill="#FFCE31"/>
<circle cx="160.5" cy="180.5" r="2.5" fill="#FFCE31"/>
<circle cx="160.5" cy="180.5" r="2.5" fill="#FFCE31"/>
<circle cx="160.5" cy="190.5" r="2.5" fill="#FFCE31"/>
<circle cx="160.5" cy="190.5" r="2.5" fill="#FFCE31"/>
<circle cx="160.5" cy="190.5" r="2.5" fill="#FFCE31"/>
<circle cx="160.5" cy="200.5" r="2.5" fill="#FFCE31"/>
<circle cx="160.5" cy="200.5" r="2.5" fill="#FFCE31"/>
<circle cx="160.5" cy="200.5" r="2.5" fill="#FFCE31"/>
<circle cx="168.5" cy="100.5" r="2.5" fill="#FFCE31"/>
<circle cx="168.5" cy="100.5" r="2.5" fill="#FFCE31"/>
<circle cx="168.5" cy="100.5" r="2.5" fill="#FFCE31"/>
<circle cx="168.5" cy="110.5" r="2.5" fill="#FFCE31"/>
<circle cx="168.5" cy="110.5" r="2.5" fill="#FFCE31"/>
<circle cx="168.5" cy="110.5" r="2.5" fill="#FFCE31"/>
<circle cx="168.5" cy="120.5" r="2.5" fill="#FFCE31"/>
<circle cx="168.5" cy="120.5" r="2.5" fill="#FFCE31"/>
<circle cx="168.5" cy="120.5" r="2.5" fill="#FFCE31"/>
<circle cx="168.5" cy="130.5" r="2.5" fill="#FFCE31"/>
<circle cx="168.5" cy="130.5" r="2.5" fill="#FFCE31"/>
<circle cx="168.5" cy="130.5" r="2.5" fill="#FFCE31"/>
<circle cx="168.5" cy="140.5" r="2.5" fill="#FFCE31"/>
<circle cx="168.5" cy="140.5" r="2.5" fill="#FFCE31"/>
<circle cx="168.5" cy="140.5" r="2.5" fill="#FFCE31"/>
<circle cx="168.5" cy="150.5" r="2.5" fill="#FFCE31"/>
<circle cx="168.5" cy="150.5" r="2.5" fill="#FFCE31"/>
<circle cx="168.5" cy="150.5" r="2.5" fill="#FFCE31"/>
<circle cx="168.5" cy="160.5" r="2.5" fill="#FFCE31"/>
<circle cx="168.5" cy="160.5" r="2.5" fill="#FFCE31"/>
<circle cx="168.5" cy="160.5" r="2.5" fill="#FFCE31"/>
<circle cx="168.5" cy="170.5" r="2.5" fill="#FFCE31"/>
<circle cx="168.5" cy="170.5" r="2.5" fill="#FFCE31"/>
<circle cx="168.5" cy="170.5" r="2.5" fill="#FFCE31"/>
<circle cx="168.5" cy="180.5" r="2.5" fill="#FFCE31"/>
<circle cx="168.5" cy="180.5" r="2.5" fill="#FFCE31"/>
<circle cx="168.5" cy="180.5" r="2.5" fill="#FFCE31"/>
<circle cx="168.5" cy="190.5" r="2.5" fill="#FFCE31"/>
<circle cx="168.5" cy="190.5" r="2.5" fill="#FFCE31"/>
<circle cx="168.5" cy="190.5" r="2.5" fill="#FFCE31"/>
<circle cx="168.5" cy="200.5" r="2.5" fill="#FFCE31"/>
<circle cx="168.5" cy="200.5" r="2.5" fill="#FFCE31"/>
<circle cx="168.5" cy="200.5" r="2.5" fill="#FFCE31"/>
<circle cx="176.5" cy="100.5" r="2.5" fill="#FFCE31"/>
<circle cx="176.5" cy="100.5" r="2.5" fill="#FFCE31"/>
<circle cx="176.5" cy="100.5" r="2.5" fill="#FFCE31"/>
<circle cx="176.5" cy="110.5" r="2.5" fill="#FFCE31"/>
<circle cx="176.5" cy="110.5" r="2.5" fill="#FFCE31"/>
<circle cx="176.5" cy="110.5" r="2.5" fill="#FFCE31"/>
<circle cx="176.5" cy="120.5" r="2.5" fill="#FFCE31"/>
<circle cx="176.5" cy="120.5" r="2.5" fill="#FFCE31"/>
<circle cx="176.5" cy="120.5" r="2.5" fill="#FFCE31"/>
<circle cx="176.5" cy="130.5" r="2.5" fill="#FFCE31"/>
<circle cx="176.5" cy="130.5" r="2.5" fill="#FFCE31"/>
<circle cx="176.5" cy="130.5" r="2.5" fill="#FFCE31"/>
<circle cx="176.5" cy="140.5" r="2.5" fill="#FFCE31"/>
<circle cx="176.5" cy="140.5" r="2.5" fill="#FFCE31"/>
<circle cx="176.5" cy="140.5" r="2.5" fill="#FFCE31"/>
<circle cx="176.5" cy="150.5" r="2.5" fill="#FFCE31"/>
<circle cx="176.5" cy="150.5" r="2.5" fill="#FFCE31"/>
<circle cx="176.5" cy="150.5" r="2.5" fill="#FFCE31"/>
<circle cx="176.5" cy="160.5" r="2.5" fill="#FFCE31"/>
<circle cx="176.5" cy="160.5" r="2.5" fill="#FFCE31"/>
<circle cx="176.5" cy="160.5" r="2.5" fill="#FFCE31"/>
<circle cx="176.5" cy="170.5" r="2.5" fill="#FFCE31"/>
<circle cx="176.5" cy="170.5" r="2.5" fill="#FFCE31"/>
<circle cx="176.5" cy="170.5" r="2.5" fill="#FFCE31"/>
<circle cx="176.5" cy="180.5" r="2.5" fill="#FFCE31"/>
<circle cx="176.5" cy="180.5" r="2.5" fill="#FFCE31"/>
<circle cx="176.5" cy="180.5" r="2.5" fill="#FFCE31"/>
<circle cx="176.5" cy="190.5" r="2.5" fill="#FFCE31"/>
<circle cx="176.5" cy="190.5" r="2.5" fill="#FFCE31"/>
<circle cx="176.5" cy="190.5" r="2.5" fill="#FFCE31"/>
<circle cx="176.5" cy="200.5" r="2.5" fill="#FFCE31"/>
<circle cx="176.5" cy="200.5" r="2.5" fill="#FFCE31"/>
<circle cx="176.5" cy="200.5" r="2.5" fill="#FFCE31"/>
<circle cx="184.5" cy="100.5" r="2.5" fill="#FFCE31"/>
<circle cx="184.5" cy="100.5" r="2.5" fill="#FFCE31"/>
<circle cx="184.5" cy="100.5" r="2.5" fill="#FFCE31"/>
<circle cx="184.5" cy="110.5" r="2.5" fill="#FFCE31"/>
<circle cx="184.5" cy="110.5" r="2.5" fill="#FFCE31"/>
<circle cx="184.5" cy="110.5" r="2.5" fill="#FFCE31"/>
<circle cx="184.5" cy="120.5" r="2.5" fill="#FFCE31"/>
<circle cx="184.5" cy="120.5" r="2.5" fill="#FFCE31"/>
<circle cx="184.5" cy="120.5" r="2.5" fill="#FFCE31"/>
<circle cx="184.5" cy="130.5" r="2.5" fill="#FFCE31"/>
<circle cx="184.5" cy="130.5" r="2.5" fill="#FFCE31"/>
<circle cx="184.5" cy="130.5" r="2.5" fill="#FFCE31"/>
<circle cx="184.5" cy="140.5" r="2.5" fill="#FFCE31"/>
<circle cx="184.5" cy="140.5" r="2.5" fill="#FFCE31"/>
<circle cx="184.5" cy="140.5" r="2.5" fill="#FFCE31"/>
<circle cx="184.5" cy="150.5" r="2.5" fill="#FFCE31"/>
<circle cx="184.5" cy="150.5" r="2.5" fill="#FFCE31"/>
<circle cx="184.5" cy="150.5" r="2.5" fill="#FFCE31"/>
<circle cx="184.5" cy="160.5" r="2.5" fill="#FFCE31"/>
<circle cx="184.5" cy="160.5" r="2.5" fill="#FFCE31"/>
<circle cx="184.5" cy="160.5" r="2.5" fill="#FFCE31"/>
<circle cx="184.5" cy="170.5" r="2.5" fill="#FFCE31"/>
<circle cx="184.5" cy="170.5" r="2.5" fill="#FFCE31"/>
<circle cx="184.5" cy="170.5" r="2.5" fill="#FFCE31"/>
<circle cx="184.5" cy="180.5" r="2.5" fill="#FFCE31"/>
<circle cx="184.5" cy="180.5" r="2.5" fill="#FFCE31"/>
<circle cx="184.5" cy="180.5" r="2.5" fill="#FFCE31"/>
<circle cx="184.5" cy="190.5" r="2.5" fill="#FFCE31"/>
<circle cx="184.5" cy="190.5" r="2.5" fill="#FFCE31"/>
<circle cx="184.5" cy="190.5" r="2.5" fill="#FFCE31"/>
<circle cx="184.5" cy="200.5" r="2.5" fill="#FFCE31"/>
<circle cx="184.5" cy="200.5" r="2.5" fill="#FFCE31"/>
<circle cx="184.5" cy="200.5" r="2.5" fill="#FFCE31"/>
<circle cx="192.5" cy="100.5" r="2.5" fill="#FFCE31"/>
<circle cx="192.5" cy="100.5" r="2.5" fill="#FFCE31"/>
<circle cx="192.5" cy="100.5" r="2.5" fill="#FFCE31"/>
<circle cx="192.5" cy="110.5" r="2.5" fill="#FFCE31"/>
<circle cx="192.5" cy="110.5" r="2.5" fill="#FFCE31"/>
<circle cx="192.5" cy="110.5" r="2.5" fill="#FFCE31"/>
<circle cx="192.5" cy="120.5" r="2.5" fill="#FFCE31"/>
<circle cx="192.5" cy="120.5" r="2.5" fill="#FFCE31"/>
<circle cx="192.5" cy="120.5" r="2.5" fill="#FFCE31"/>
<circle cx="192.5" cy="130.5" r="2.5" fill="#FFCE31"/>
<circle cx="192.5" cy="130.5" r="2.5" fill="#FFCE31"/>
<circle cx="192.5" cy="130.5" r="2.5" fill="#FFCE31"/>
<circle cx="192.5" cy="140.5" r="2.5" fill="#FFCE31"/>
<circle cx="192.5" cy="140.5" r="2.5" fill="#FFCE31"/>
<circle cx="192.5" cy="140.5" r="2.5" fill="#FFCE31"/>
<circle cx="192.5" cy="150.5" r="2.5" fill="#FFCE31"/>
<circle cx="192.5" cy="150.5" r="2.5" fill="#FFCE31"/>
<circle cx="192.5" cy="150.5" r="2.5" fill="#FFCE31"/>
<circle cx="192.5" cy="160.5" r="2.5" fill="#FFCE31"/>
<circle cx="192.5" cy="160.5" r="2.5" fill="#FFCE31"/>
<circle cx="192.5" cy="160.5" r="2.5" fill="#FFCE31"/>
<circle cx="192.5" cy="170.5" r="2.5" fill="#FFCE31"/>
<circle cx="192.5" cy="170.5" r="2.5" fill="#FFCE31"/>
<circle cx="192.5" cy="170.5" r="2.5" fill="#FFCE31"/>
<circle cx="192.5" cy="180.5" r="2.5" fill="#FFCE31"/>
<circle cx="192.5" cy="180.5" r="2.5" fill="#FFCE31"/>
<circle cx="192.5" cy="180.5" r="2.5" fill="#FFCE31"/>
<circle cx="192.5" cy="190.5" r="2.5" fill="#FFCE31"/>
<circle cx="192.5" cy="190.5" r="2.5" fill="#FFCE31"/>
<circle cx="192.5" cy="190.5" r="2.5" fill="#FFCE31"/>
<circle cx="192.5" cy="200.5" r="2.5" fill="#FFCE31"/>
<circle cx="192.5" cy="200.5" r="2.5" fill="#FFCE31"/>
<circle cx="192.5" cy="200.5" r="2.5" fill="#FFCE31"/>
<circle cx="200.5" cy="100.5" r="2.5" fill="#FFCE31"/>
<circle cx="200.5" cy="100.5" r="2.5" fill="#FFCE31"/>
<circle cx="200.5" cy="100.5" r="2.5" fill="#FFCE31"/>
<circle cx="200.5" cy="110.5" r="2.5" fill="#FFCE31"/>
<circle cx="200.5" cy="110.5" r="2.5" fill="#FFCE31"/>
<circle cx="200.5" cy="110.5" r="2.5" fill="#FFCE31"/>
<circle cx="200.5" cy="120.5" r="2.5" fill="#FFCE31"/>
<circle cx="200.5" cy="120.5" r="2.5" fill="#FFCE31"/>
<circle cx="200.5" cy="120.5" r="2.5" fill="#FFCE31"/>
<circle cx="200.5" cy="130.5" r="2.5" fill="#FFCE31"/>
<circle cx="200.5" cy="130.5" r="2.5" fill="#FFCE31"/>
<circle cx="200.5" cy="130.5" r="2.5" fill="#FFCE31"/>
<circle cx="200.5" cy="140.5" r="2.5" fill="#FFCE31"/>
<circle cx="200.5" cy="140.5" r="2.5" fill="#FFCE31"/>
<circle cx="200.5" cy="140.5" r="2.5" fill="#FFCE31"/>
<circle cx="200.5" cy="150.5" r="2.5" fill="#FFCE31"/>
<circle cx="200.5" cy="150.5" r="2.5" fill="#FFCE31"/>
<circle cx="200.5" cy="150.5" r="2.5" fill="#FFCE31"/>
<circle cx="200.5" cy="160.5" r="2.5" fill="#FFCE31"/>
<circle cx="200.5" cy="160.5" r="2.5" fill="#FFCE31"/>
<circle cx="200.5" cy="160.5" r="2.5" fill="#FFCE31"/>
<circle cx="200.5" cy="170.5" r="2.5" fill="#FFCE31"/>
<circle cx="200.5" cy="170.5" r="2.5" fill="#FFCE31"/>
<circle cx="200.5" cy="170.5" r="2.5" fill="#FFCE31"/>
<circle cx="200.5" cy="180.5" r="2.5" fill="#FFCE31"/>
<circle cx="200.5" cy="180.5" r="2.5" fill="#FFCE31"/>
<circle cx="200.5" cy="180.5" r="2.5" fill="#FFCE31"/>
<circle cx="200.5" cy="190.5" r="2.5" fill="#FFCE31"/>
<circle cx="200.5" cy="190.5" r="2.5" fill="#FFCE31"/>
<circle cx="200.5" cy="190.5" r="2.5" fill="#FFCE31"/>
<circle cx="200.5" cy="200.5" r="2.5" fill="#FFCE31"/>
<circle cx="200.5" cy="200.5" r="2.5" fill="#FFCE31"/>
<circle cx="200.5" cy="200.5" r="2.5" fill="#FFCE31"/>
<circle cx="208.5" cy="100.5" r="2.5" fill="#FFCE31"/>
<circle cx="208.5" cy="100.5" r="2.5" fill="#FFCE31"/>
<circle cx="208.5" cy="100.5" r="2.5" fill="#FFCE31"/>
<circle cx="208.5" cy="110.5" r="2.5" fill="#FFCE31"/>
<circle cx="208.5" cy="110.5" r="2.5" fill="#FFCE31"/>
<circle cx="208.5" cy="110.5" r="2.5" fill="#FFCE31"/>
<circle cx="208.5" cy="120.5" r="2.5" fill="#FFCE31"/>
<circle cx="208.5" cy="120.5" r="2.5" fill="#FFCE31"/>
<circle cx="208.5" cy="120.5" r="2.5" fill="#FFCE31"/>
<circle cx="208.5" cy="130.5" r="2.5" fill="#FFCE31"/>
<circle cx="208.5" cy="130.5" r="2.5" fill="#FFCE31"/>
<circle cx="208.5" cy="130.5" r="2.5" fill="#FFCE31"/>
<circle cx="208.5" cy="140.5" r="2.5" fill="#FFCE31"/>
<circle cx="208.5" cy="140.5" r="2.5" fill="#FFCE31"/>
<circle cx="208.5" cy="140.5" r="2.5" fill="#FFCE31"/>
<circle cx="208.5" cy="150.5" r="2.5" fill="#FFCE31"/>
<circle cx="208.5" cy="150.5" r="2.5" fill="#FFCE31"/>
<circle cx="208.5" cy="150.5" r="2.5" fill="#FFCE31"/>
<circle cx="208.5" cy="160.5" r="2.5" fill="#FFCE31"/>
<circle cx="208.5" cy="160.5" r="2.5" fill="#FFCE31"/>
<circle cx="208.5" cy="160.5" r="2.5" fill="#FFCE31"/>
<circle cx="208.5" cy="170.5" r="2.5" fill="#FFCE31"/>
<circle cx="208.5" cy="170.5" r="2.5" fill="#FFCE31"/>
<circle cx="208.5" cy="170.5" r="2.5" fill="#FFCE31"/>
<circle cx="208.5" cy="180.5" r="2.5" fill="#FFCE31"/>
<circle cx="208.5" cy="180.5" r="2.5" fill="#FFCE31"/>
<circle cx="208.5" cy="180.5" r="2.5" fill="#FFCE31"/>
<circle cx="208.5" cy="190.5" r="2.5" fill="#FFCE31"/>
<circle cx="208.5" cy="190.5" r="2.5" fill="#FFCE31"/>
<circle cx="208.5" cy="190.5" r="2.5" fill="#FFCE31"/>
<circle cx="208.5" cy="200.5" r="2.5" fill="#FFCE31"/>
<circle cx="208.5" cy="200.5" r="2.5" fill="#FFCE31"/>
<circle cx="208.5" cy="200.5" r="2.5" fill="#FFCE31"/>
<circle cx="216.5" cy="100.5" r="2.5" fill="#FFCE31"/>
<circle cx="216.5" cy="100.5" r="2.5" fill="#FFCE31"/>
<circle cx="216.5" cy="100.5" r="2.5" fill="#FFCE31"/>
<circle cx="216.5" cy="110.5" r="2.5" fill="#FFCE31"/>
<circle cx="216.5" cy="110.5" r="2.5" fill="#FFCE31"/>
<circle cx="216.5" cy="110.5" r="2.5" fill="#FFCE31"/>
<circle cx="216.5" cy="120.5" r="2.5" fill="#FFCE31"/>
<circle cx="216.5" cy="120.5" r="2.5" fill="#FFCE31"/>
<circle cx="216.5" cy="120.5" r="2.5" fill="#FFCE31"/>
<circle cx="216.5" cy="130.5" r="2.5" fill="#FFCE31"/>
<circle cx="216.5" cy="130.5" r="2.5" fill="#FFCE31"/>
<circle cx="216.5" cy="130.5" r="2.5" fill="#FFCE31"/>
<circle cx="216.5" cy="140.5" r="2.5" fill="#FFCE31"/>
<circle cx="216.5" cy="140.5" r="2.5" fill="#FFCE31"/>
<circle cx="216.5" cy="140.5" r="2.5" fill="#FFCE31"/>
<circle cx="216.5" cy="150.5" r="2.5" fill="#FFCE31"/>
<circle cx="216.5" cy="150.5" r="2.5" fill="#FFCE31"/>
<circle cx="216.5" cy="150.5" r="2.5" fill="#FFCE31"/>
<circle cx="216.5" cy="160.5" r="2.5" fill="#FFCE31"/>
<circle cx="216.5" cy="160.5" r="2.5" fill="#FFCE31"/>
<circle cx="216.5" cy="160.5" r="2.5" fill="#FFCE31"/>
<circle cx="216.5" cy="170.5" r="2.5" fill="#FFCE31"/>
<circle cx="216.5" cy="170.5" r="2.5" fill="#FFCE31"/>
<circle cx="216.5" cy="170.5" r="2.5" fill="#FFCE31"/>
<circle cx="216.5" cy="180.5" r="2.5" fill="#FFCE31"/>
<circle cx="216.5" cy="180.5" r="2.5" fill="#FFCE31"/>
<circle cx="216.5" cy="180.5" r="2.5" fill="#FFCE31"/>
<circle cx="216.5" cy="190.5" r="2.5" fill="#FFCE31"/>
<circle cx="216.5" cy="190.5" r="2.5" fill="#FFCE31"/>
<circle cx="216.5" cy="190.5" r="2.5" fill="#FFCE31"/>
<circle cx="216.5" cy="200.5" r="2.5" fill="#FFCE31"/>
<circle cx="216.5" cy="200.5" r="2.5" fill="#FFCE31"/>
<circle cx="216.5" cy="200.5" r="2.5" fill="#FFCE31"/>
</svg>
